<?xml version="1.0" encoding="UTF-8"?><svg id="Layer_2" xmlns="http://www.w3.org/2000/svg" viewBox="0 0 149.74 9.92"><defs><style>.cls-1{fill:#fff;}</style></defs><g id="Layer_1-2"><path class="cls-1" d="m2.75.21h4.31v.31h-.23c-.46,0-.76.04-.9.11-.14.08-.24.22-.28.42-.05.21-.07.7-.07,1.47v3.18c0,.79-.03,1.39-.09,1.8-.06.41-.23.81-.52,1.2-.28.39-.66.69-1.13.9-.47.21-1.02.31-1.65.31-.7,0-1.24-.13-1.62-.39-.38-.26-.57-.57-.57-.93,0-.22.07-.4.2-.55.14-.15.3-.22.5-.22s.37.06.51.2c.14.13.2.29.2.49,0,.11-.03.23-.08.36-.05.11-.08.19-.08.24,0,.15.09.26.26.34.17.08.39.12.64.12.52,0,.96-.17,1.31-.5.35-.33.57-.72.64-1.17.07-.45.11-1.19.11-2.23v-3.17c0-.74-.02-1.22-.07-1.43-.04-.21-.14-.36-.28-.45-.14-.08-.45-.12-.92-.12h-.22V.21Z"/><path class="cls-1" d="m10.86,5.12v1.96c0,.74.02,1.22.05,1.44.03.23.13.4.28.51.15.11.44.17.86.17h.31v.31h-4.29v-.31h.25c.4,0,.68-.05.83-.15.15-.1.25-.26.29-.47.04-.21.06-.71.06-1.48V2.53c0-.74-.02-1.22-.06-1.43-.04-.22-.13-.36-.28-.45-.14-.08-.45-.12-.92-.12h-.17V.21l1.17-.05c.94-.04,1.67-.06,2.19-.06.96,0,1.71.08,2.23.23.52.15.95.42,1.28.8.33.38.5.87.5,1.45,0,.51-.11.96-.34,1.34-.23.39-.55.68-.98.88-.42.2-1.17.3-2.24.3h-1.02Zm0-.33h.67c.54,0,.97-.05,1.3-.16.33-.11.6-.33.82-.68.22-.34.33-.77.33-1.27,0-.77-.19-1.33-.57-1.7-.38-.36-.99-.54-1.84-.54-.31,0-.55,0-.71.03v4.32Z"/><path class="cls-1" d="m23.21,7.91L26.59.21h2.87v.31h-.34c-.46,0-.76.04-.9.11-.14.08-.24.22-.28.42-.05.21-.07.7-.07,1.47v4.57c0,.73.02,1.21.05,1.44.04.23.13.39.28.5.15.11.44.17.86.17h.41v.31h-4.47v-.31h.33c.4,0,.67-.05.83-.15.15-.1.25-.26.3-.47.04-.21.07-.71.07-1.49V1.17l-3.66,8.34h-.33l-3.7-8.34v5.45c0,.75.02,1.25.07,1.52.05.27.19.51.43.71.24.2.57.32,1,.35v.31h-3.35v-.31c.4-.02.73-.13.98-.33.25-.19.4-.43.46-.72.06-.29.08-.81.08-1.58V2.53c0-.74-.02-1.22-.07-1.43-.04-.22-.14-.36-.28-.45-.14-.08-.45-.12-.92-.12h-.26V.21h2.84l3.41,7.7Z"/><path class="cls-1" d="m29.99,5.87c0-1.1.37-1.99,1.11-2.66.74-.67,1.66-1,2.76-1s2.04.33,2.79.99c.75.66,1.12,1.56,1.12,2.71s-.36,2-1.07,2.69c-.72.69-1.66,1.03-2.82,1.03s-2.07-.34-2.79-1.03c-.73-.69-1.09-1.6-1.09-2.73Zm1.22.04c0,1.15.23,2.01.69,2.59.46.58,1.14.86,2.05.86.8,0,1.44-.29,1.9-.86.46-.58.7-1.44.7-2.58s-.23-1.97-.69-2.56c-.46-.59-1.12-.89-1.99-.89s-1.51.29-1.97.87c-.46.58-.69,1.43-.69,2.57Z"/><path class="cls-1" d="m139.8,5.87c0-1.1.37-1.99,1.11-2.66.74-.67,1.66-1,2.76-1s2.04.33,2.79.99c.75.66,1.12,1.56,1.12,2.71s-.36,2-1.07,2.69c-.71.69-1.65,1.03-2.82,1.03s-2.06-.34-2.79-1.03c-.73-.69-1.09-1.6-1.09-2.73Zm1.22.04c0,1.15.23,2.01.69,2.59.46.58,1.14.86,2.05.86.8,0,1.44-.29,1.9-.86.46-.58.7-1.44.7-2.58s-.23-1.97-.69-2.56c-.46-.59-1.12-.89-1.99-.89s-1.51.29-1.97.87c-.46.58-.69,1.43-.69,2.57Z"/><path class="cls-1" d="m46.24,9.5h-1.91c-.34-.24-.86-.86-1.56-1.87-.22-.32-.46-.63-.7-.92-.24-.29-.41-.48-.5-.54-.09-.07-.23-.1-.42-.1h-.28v1.57c0,.56.01.93.04,1.1.03.17.1.3.21.39.12.08.33.12.66.12h.35v.24h-3.43v-.24h.23c.31,0,.52-.04.64-.12.12-.08.19-.2.22-.36.03-.16.05-.54.05-1.14v-3.51c0-.57-.02-.94-.05-1.1-.03-.16-.1-.28-.21-.34-.11-.06-.35-.09-.72-.09h-.12v-.25l1.02-.05c.68-.03,1.22-.04,1.62-.04.68,0,1.24.06,1.66.19.42.13.77.34,1.04.62.26.29.39.63.39,1.04,0,.47-.17.87-.51,1.2-.34.33-.84.54-1.51.62.3.14.78.66,1.44,1.55.54.72.96,1.2,1.27,1.42.31.22.67.34,1.09.36v.24Zm-5.37-3.69c.26,0,.53-.02.81-.03.28-.01.52-.05.72-.12.21-.06.37-.16.5-.28.13-.12.23-.28.3-.48.07-.2.11-.44.11-.73,0-.5-.12-.91-.37-1.21-.25-.3-.79-.45-1.62-.45-.13,0-.28,0-.44.02v3.28Z"/><path class="cls-1" d="m51.19,6.44h3.09v.24c-.34,0-.57.04-.69.11-.12.07-.2.18-.24.34s-.06.55-.06,1.17v.76c-.08-.01-.16-.02-.23-.02-.27,0-.62.08-1.06.25-.6.22-1.15.34-1.66.34-1.02,0-1.87-.34-2.55-1.01-.68-.67-1.02-1.53-1.02-2.56s.33-1.92.97-2.69c.65-.77,1.53-1.16,2.64-1.16.96,0,1.75.35,2.38,1.05.12-.25.19-.52.22-.81h.25v2.4h-.25c-.1-.73-.38-1.31-.83-1.74-.46-.42-1.01-.64-1.66-.64s-1.26.25-1.75.75c-.5.5-.75,1.38-.75,2.66s.24,2.16.72,2.69c.48.53,1.07.79,1.79.79.37,0,.7-.07.99-.22.3-.15.5-.33.61-.54.11-.22.16-.49.16-.82,0-.38-.03-.64-.08-.77-.05-.13-.13-.21-.24-.26-.11-.04-.3-.07-.58-.07h-.17v-.24Z"/><path class="cls-1" d="m59.47,6.86h-2.71l-.19.45c-.27.66-.41,1.09-.41,1.29,0,.22.07.38.22.49.15.11.33.17.57.17v.24h-2.15v-.24c.32-.05.55-.16.71-.34.16-.17.34-.54.56-1.1.02-.05.11-.26.26-.61l2.09-4.95h.21l2.38,5.68.33.75c.08.17.17.3.3.4.12.1.31.16.56.18v.24h-2.81v-.24c.34,0,.58-.03.7-.08.12-.05.18-.15.18-.3,0-.08-.08-.31-.24-.69l-.54-1.33Zm-.11-.26l-1.25-3.03-1.25,3.03h2.5Z"/><path class="cls-1" d="m69.52,9.66l-5.07-6.71v4.96c0,.41.02.68.06.81.04.13.15.25.34.36.19.11.47.16.85.16v.24h-2.66v-.24c.34-.02.6-.09.78-.19.18-.1.28-.21.32-.32.03-.12.05-.39.05-.82v-3.79c0-.55-.03-.92-.08-1.1-.05-.18-.13-.3-.24-.36-.11-.05-.36-.08-.75-.08v-.25h2.13l4.23,5.6V3.66c0-.32-.03-.54-.1-.66-.06-.13-.2-.23-.4-.3-.2-.07-.44-.11-.72-.11v-.25h2.58v.25c-.3.02-.54.08-.71.17-.17.09-.28.2-.33.33-.05.13-.07.35-.07.65v5.92h-.23Z"/><path class="cls-1" d="m83.04,6.05h.31v3.27h-.31c-.08-.37-.23-.7-.45-.98-.81.92-1.85,1.38-3.12,1.38-1.34,0-2.43-.42-3.28-1.27-.85-.85-1.27-1.97-1.27-3.37,0-.92.2-1.78.59-2.59.39-.81.94-1.41,1.64-1.81.7-.39,1.47-.59,2.3-.59.69,0,1.32.14,1.88.43.56.28.98.6,1.26.94.2-.39.32-.79.36-1.2h.31l.08,3.52h-.31c-.2-1.25-.62-2.12-1.25-2.61-.63-.49-1.34-.74-2.13-.74-.97,0-1.74.39-2.31,1.19-.57.79-.85,1.92-.85,3.39,0,1.39.31,2.46.93,3.21.63.74,1.4,1.11,2.33,1.11.5,0,1-.12,1.52-.36.52-.24.93-.65,1.23-1.23.3-.58.48-1.13.54-1.67Z"/><path class="cls-1" d="m90.89,5.88h-3.73v1.73c0,.56.02.93.04,1.11.03.17.1.3.21.39.12.08.34.13.66.13h.19v.24h-3.24v-.24h.19c.31,0,.52-.04.64-.12.12-.08.2-.2.23-.36.03-.16.05-.54.05-1.14v-3.51c0-.57-.02-.94-.05-1.1-.03-.16-.11-.28-.21-.34-.11-.06-.34-.1-.71-.1h-.13v-.24h3.24v.24h-.13c-.35,0-.59.03-.69.09-.11.06-.19.17-.22.32-.04.16-.06.54-.06,1.13v1.42h3.73v-1.42c0-.57-.01-.94-.05-1.1-.03-.16-.1-.28-.21-.34-.11-.06-.34-.1-.7-.1h-.19v-.24h3.24v.24h-.1c-.35,0-.58.03-.69.09-.11.06-.18.17-.22.32-.04.16-.06.54-.06,1.13v3.51c0,.56.01.93.04,1.11.02.17.1.3.21.39.12.08.33.13.65.13h.16v.24h-3.24v-.24h.25c.3,0,.51-.04.63-.12.12-.08.19-.2.22-.36.03-.16.05-.54.05-1.15v-1.73Z"/><path class="cls-1" d="m98.37,6.84h-2.71l-.19.46c-.27.66-.41,1.08-.41,1.29,0,.21.07.38.22.49.15.11.33.17.57.17v.24h-2.16v-.24c.32-.05.56-.16.71-.33.15-.17.34-.54.56-1.1.02-.05.11-.26.26-.61l2.09-4.96h.21l2.38,5.68.33.75c.07.17.17.3.3.4.12.1.31.16.56.18v.24h-2.81v-.24c.34,0,.58-.03.7-.08.12-.05.18-.15.18-.3,0-.08-.08-.31-.24-.69l-.55-1.32Zm-.11-.26l-1.25-3.03-1.25,3.03h2.5Z"/><path class="cls-1" d="m102.01,9.4v-2.31h.26c.3,1.5,1.01,2.25,2.13,2.25.5,0,.89-.14,1.17-.43.28-.29.41-.61.41-.96s-.12-.66-.36-.9c-.24-.24-.68-.5-1.33-.77-.57-.25-1.01-.46-1.3-.65-.29-.18-.52-.42-.68-.72-.16-.3-.24-.61-.24-.94,0-.51.18-.93.53-1.27.35-.34.8-.51,1.35-.51.3,0,.59.05.86.15.27.1.54.3.82.61.16-.19.25-.4.28-.63h.22v1.87h-.22c-.13-.54-.37-.97-.72-1.28-.34-.31-.74-.46-1.19-.46s-.74.11-.94.34c-.2.23-.3.48-.3.75,0,.33.13.61.38.83.25.23.69.49,1.34.78.62.28,1.06.5,1.34.67.28.17.5.4.68.69.17.3.25.64.25,1.02,0,.61-.2,1.11-.61,1.49-.41.38-.95.58-1.64.58-.79,0-1.44-.3-1.97-.9-.12.16-.2.4-.26.7h-.26Z"/><path class="cls-1" d="m113.78,7.25h.24l-.16,2.23h-5.89v-.24h.15c.35,0,.58-.05.68-.14.1-.09.17-.22.2-.36.03-.15.04-.52.04-1.12v-3.51c0-.55-.01-.91-.04-1.08-.03-.17-.1-.29-.21-.36-.11-.07-.34-.1-.69-.1v-.24h5.09l.17,1.78h-.24c-.11-.5-.25-.85-.41-1.06-.16-.21-.35-.34-.58-.4-.22-.05-.58-.08-1.08-.08h-.98v3h.75c.35,0,.59-.03.72-.09.14-.06.23-.15.27-.27.04-.12.07-.36.07-.71h.24v2.43h-.24c0-.4-.03-.66-.1-.8-.07-.13-.16-.22-.29-.26-.13-.04-.34-.06-.65-.06h-.78v1.69c0,.85.05,1.34.16,1.49.11.15.4.22.88.22h.53c.38,0,.68-.04.93-.13.24-.09.47-.28.69-.58.22-.3.39-.72.52-1.25Z"/><path class="cls-1" d="m123.2,3.64h3.08v.33c-.39.1-.73.29-1.01.56-.29.27-.59.77-.89,1.51-.26.61-.49,1.06-.71,1.34.51.73.91,1.2,1.21,1.39.29.2.6.29.93.29.45,0,.8-.22,1.04-.65h.33c-.1.39-.32.71-.64.95-.33.24-.71.36-1.14.36-.94,0-1.76-.47-2.47-1.4-.84.94-1.73,1.4-2.67,1.4-.46,0-.9-.11-1.32-.33-.42-.22-.76-.53-1.03-.93-.26-.4-.4-.86-.4-1.39,0-.6.16-1.11.49-1.51.33-.41.96-.92,1.89-1.54-.56-.78-.84-1.48-.84-2.11,0-.5.19-.94.57-1.33.38-.39.86-.58,1.44-.58.52,0,.98.15,1.4.44.41.29.62.67.62,1.15,0,.74-.69,1.45-2.06,2.14.85,1.15,1.66,2.26,2.41,3.34.27-.38.49-.78.65-1.18.15-.41.24-.72.24-.95,0-.55-.38-.86-1.13-.95v-.33Zm-3.08.68c-.5.31-.89.66-1.17,1.07-.28.41-.41.81-.41,1.19,0,.59.24,1.15.71,1.67.47.53,1.01.79,1.61.79.67,0,1.29-.33,1.85-.99-1.01-1.53-1.87-2.77-2.6-3.72Zm.71-.87c.96-.56,1.43-1.16,1.43-1.81,0-.39-.1-.7-.32-.94-.21-.24-.5-.36-.85-.36s-.62.11-.83.34c-.21.23-.31.51-.31.85,0,.47.29,1.1.88,1.91Z"/><path class="cls-1" d="m137.73,6.01h.31v3.27h-.31c-.08-.37-.23-.7-.45-.98-.81.92-1.86,1.38-3.12,1.38-1.34,0-2.43-.42-3.28-1.27-.85-.85-1.27-1.97-1.27-3.37,0-.92.2-1.78.59-2.59.39-.81.94-1.41,1.64-1.81.7-.39,1.47-.59,2.3-.59.69,0,1.32.14,1.88.43.56.28.98.6,1.26.94.2-.39.32-.79.37-1.2h.31l.08,3.52h-.31c-.2-1.25-.62-2.12-1.25-2.61-.63-.49-1.34-.74-2.13-.74-.97,0-1.74.4-2.31,1.19-.57.79-.85,1.92-.85,3.4,0,1.4.31,2.46.93,3.21.62.74,1.4,1.11,2.33,1.11.5,0,1-.12,1.52-.36.52-.24.93-.65,1.23-1.23.3-.58.48-1.14.54-1.68Z"/><path class="cls-1" d="m148.17,8.9c0-.21.08-.4.23-.55.15-.15.34-.23.55-.23s.41.08.56.23.23.34.23.55-.08.41-.23.56c-.16.15-.34.23-.56.23s-.4-.08-.56-.24c-.15-.16-.23-.34-.23-.55Z"/></g></svg>