<?xml version="1.0" encoding="UTF-8"?><svg id="Layer_2" xmlns="http://www.w3.org/2000/svg" viewBox="0 0 180 28.86"><defs><style>.cls-1{fill:#fff;}.cls-2{fill:#ffd714;}.cls-3{fill:#ff0400;}.cls-4{fill:#ff8a2e;}</style></defs><g id="Firefly_Logo"><g><g><path class="cls-1" d="M39.03,.5V3.56c-.22-.06-.62-.15-1.3-.15-.93,0-2.23,.43-2.23,2.29v1.98h10.03v15.08h-3.53V10.81h-6.5v11.95h-3.62V10.81h-2.63v-3.13h2.63v-2.07c0-3.38,2.17-5.42,5.26-5.42,.9,0,1.64,.19,1.89,.31Zm4.74-.5c1.3,0,2.35,1.05,2.35,2.35s-1.05,2.32-2.35,2.32-2.32-1.05-2.32-2.32,1.02-2.35,2.32-2.35Z"/><path class="cls-1" d="M57.55,11.24c-.4-.06-.81-.09-1.18-.09-2.79,0-4.06,1.61-4.06,4.43v7.18h-3.59V7.68h3.5v2.42c.71-1.64,2.38-2.6,4.37-2.6,.43,0,.81,.06,.96,.09v3.65Z"/><path class="cls-1" d="M72.57,18.46c-.81,2.63-3.19,4.77-6.81,4.77-4.09,0-7.71-2.97-7.71-8.08,0-4.77,3.53-7.93,7.34-7.93,4.65,0,7.37,3.07,7.37,7.83,0,.59-.06,1.08-.09,1.15h-11.02c.09,2.29,1.89,3.93,4.12,3.93s3.28-1.15,3.78-2.63l3.03,.96Zm-3.44-4.89c-.06-1.77-1.24-3.34-3.72-3.34-2.26,0-3.56,1.73-3.69,3.34h7.4Z"/><path class="cls-1" d="M80.12,5.7v1.98h3.5v3.13h-3.5v11.95h-3.62V10.81h-2.63v-3.13h2.63v-2.07c0-3.38,2.17-5.42,5.26-5.42,.9,0,1.64,.19,1.89,.31V3.56c-.22-.06-.62-.15-1.3-.15-.96,0-2.23,.43-2.23,2.29Z"/><path class="cls-1" d="M85.64,22.76V.34h3.59V22.76h-3.59Z"/><path class="cls-1" d="M93.29,28.86l3.62-7.9-6.44-13.29h4.06l4.34,9.54,4.06-9.54h3.81l-9.6,21.18h-3.84Z"/><path class="cls-1" d="M109.98,22.76h-1.86V.4h1.86V10.31c.77-1.49,2.45-2.73,4.74-2.73,3.5,0,5.23,2.48,5.23,5.51v9.66h-1.86V13.41c0-2.32-1.21-4.15-3.99-4.15-2.51,0-4.12,2.2-4.12,4.61v8.89Z"/><path class="cls-1" d="M135.41,18.58c-.84,2.51-3.07,4.58-6.47,4.58-3.9,0-7.18-2.88-7.18-7.83,0-4.65,3.16-7.74,6.84-7.74,4.37,0,6.87,3.1,6.91,7.46,0,.25,0,.43-.03,.68h-11.83v.12c.03,3.41,2.38,5.64,5.3,5.64,2.66,0,4.21-1.55,4.83-3.5l1.64,.59Zm-1.86-4.4c-.06-2.76-1.83-4.92-4.92-4.92-2.76,0-4.74,2.2-4.92,4.92h9.85Z"/><path class="cls-1" d="M137.61,18.95c0-2.51,1.73-3.96,4.43-4.37l3.93-.59c1.27-.19,1.55-.74,1.55-1.42,0-1.95-1.3-3.34-3.72-3.34s-3.9,1.3-4.15,3.44l-1.73-.37c.34-2.82,2.69-4.68,5.85-4.68,3.84,0,5.61,2.32,5.61,5.14v7.46c0,1.18,.09,1.92,.22,2.54h-1.83c-.06-.34-.19-1.33-.19-2.54-.68,1.39-2.45,2.91-5.14,2.91-3.1,0-4.83-2.04-4.83-4.18Zm9.91-2.23v-1.67c-.09,.09-.5,.28-1.08,.37l-4.12,.62c-1.73,.25-2.82,1.21-2.82,2.82,0,1.36,1.11,2.69,3.16,2.69,2.82,0,4.86-1.86,4.86-4.83Z"/><path class="cls-1" d="M152.72,22.76V.4h1.86V22.76h-1.86Z"/><path class="cls-1" d="M161.85,7.99h3.84v1.67h-3.84v8.92c0,1.8,.84,2.66,2.51,2.66,.53,0,1.05-.12,1.33-.25v1.64c-.25,.12-.93,.28-1.83,.28-2.38,0-3.87-1.46-3.87-4.15V9.66h-3.13v-1.67h1.11c1.46,0,2.07-.65,2.07-2.17V3.31h1.8V7.99Z"/><path class="cls-1" d="M170.03,22.76h-1.86V.4h1.86V10.31c.77-1.49,2.45-2.73,4.74-2.73,3.5,0,5.23,2.48,5.23,5.51v9.66h-1.86V13.41c0-2.32-1.21-4.15-3.99-4.15-2.51,0-4.12,2.2-4.12,4.61v8.89Z"/></g><g><g><path class="cls-4" d="M18.43,.19H4.61C2.06,.19,0,2.25,0,4.79c0,2.54,2.06,4.61,4.61,4.61H13.82V4.79c0-2.54,2.06-4.61,4.61-4.61Z"/><path class="cls-4" d="M23.04,18.62V4.79c0,2.54-2.06,4.61-4.61,4.61h-4.61v9.22c0,2.54,2.06,4.61,4.61,4.61s4.61-2.06,4.61-4.61Z"/><path class="cls-3" d="M23.04,4.79c0-2.54-2.06-4.61-4.61-4.61-2.54,0-4.61,2.06-4.61,4.61v4.61h4.61c2.54,0,4.61-2.06,4.61-4.61Z"/></g><path class="cls-2" d="M5.53,12.17c-3.05,0-5.53,2.48-5.53,5.53s2.48,5.53,5.53,5.53,5.53-2.48,5.53-5.53v-5.53H5.53Z"/></g></g></g></svg>