<svg width="56" height="46" viewBox="0 0 56 46" fill="none" xmlns="http://www.w3.org/2000/svg">
<path d="M55.9959 18.82C55.9959 34.4276 56.6573 46 41.1944 46C25.7316 46 0 34.4276 0 18.82C0 3.21241 17.35 1 32.8129 1C45.6527 2.44 55.9959 3.21241 55.9959 18.82Z" fill="#FFF7D0"/>
<path d="M40.4995 27.8701C42.718 27.8701 44.5166 26.0716 44.5166 23.853C44.5166 21.6344 42.718 19.8359 40.4995 19.8359C38.2809 19.8359 36.4824 21.6344 36.4824 23.853C36.4824 26.0716 38.2809 27.8701 40.4995 27.8701Z" stroke="black" stroke-width="2" stroke-linecap="round" stroke-linejoin="round"/>
<path d="M47.0606 32.8822C45.745 31.1811 43.8195 30.0583 41.6911 29.751C39.5627 29.4438 37.3982 29.9762 35.6553 31.2358" stroke="black" stroke-width="2" stroke-linecap="round" stroke-linejoin="round"/>
<path d="M15.5005 27.8701C17.719 27.8701 19.5175 26.0716 19.5175 23.853C19.5175 21.6344 17.719 19.8359 15.5005 19.8359C13.2819 19.8359 11.4834 21.6344 11.4834 23.853C11.4834 26.0716 13.2819 27.8701 15.5005 27.8701Z" stroke="black" stroke-width="2" stroke-linecap="round" stroke-linejoin="round"/>
<path d="M8.9375 32.8803C10.2538 31.1791 12.1798 30.0561 14.3086 29.7485C16.4375 29.441 18.6026 29.9729 20.3466 31.232" stroke="black" stroke-width="2" stroke-linecap="round" stroke-linejoin="round"/>
<path d="M37.3337 36.5763C37.3337 34.1009 36.3503 31.7269 34.6 29.9766C32.8497 28.2263 30.4757 27.2429 28.0003 27.2429C25.525 27.2429 23.151 28.2263 21.4007 29.9766C19.6503 31.7269 18.667 34.1009 18.667 36.5763" stroke="black" stroke-width="2" stroke-linecap="round" stroke-linejoin="round"/>
<path d="M27.9047 24.6986C30.9511 24.6986 33.4207 22.229 33.4207 19.1826C33.4207 16.1362 30.9511 13.6666 27.9047 13.6666C24.8583 13.6666 22.3887 16.1362 22.3887 19.1826C22.3887 22.229 24.8583 24.6986 27.9047 24.6986Z" stroke="black" stroke-width="2" stroke-linecap="round" stroke-linejoin="round"/>
<path d="M27.9999 44.4667C39.8556 44.4667 49.4665 34.8557 49.4665 23C49.4665 11.1443 39.8556 1.53333 27.9999 1.53333C16.1442 1.53333 6.5332 11.1443 6.5332 23C6.5332 34.8557 16.1442 44.4667 27.9999 44.4667Z" stroke="black" stroke-width="2" stroke-linecap="round" stroke-linejoin="round"/>
</svg>
