<svg width="57" height="45" viewBox="0 0 57 45" fill="none" xmlns="http://www.w3.org/2000/svg">
<path d="M55.9819 24.7735C55.1568 12.7701 61.3152 2.95122 45.4239 2.92753C29.5325 2.90385 3.44943 7.8319 0.665227 23.9441C-0.722226 37.8371 8.27113 43.4783 24.1625 43.5019C37.3601 42.2233 56.9214 38.4416 55.9819 24.7735Z" fill="#E5F9F4"/>
<path d="M7.0332 22.4667C7.0332 25.2857 7.58845 28.0771 8.66726 30.6816C9.74606 33.2861 11.3273 35.6525 13.3206 37.6459C15.314 39.6393 17.6805 41.2205 20.2849 42.2993C22.8894 43.3781 25.6808 43.9333 28.4999 43.9333C31.3189 43.9333 34.1104 43.3781 36.7148 42.2993C39.3193 41.2205 41.6857 39.6393 43.6791 37.6459C45.6725 35.6525 47.2537 33.2861 48.3325 30.6816C49.4113 28.0771 49.9665 25.2857 49.9665 22.4667C49.9665 19.6476 49.4113 16.8562 48.3325 14.2517C47.2537 11.6473 45.6725 9.28081 43.6791 7.28744C41.6857 5.29408 39.3193 3.71285 36.7148 2.63405C34.1104 1.55525 31.3189 1 28.4999 1C25.6808 1 22.8894 1.55525 20.2849 2.63405C17.6805 3.71285 15.314 5.29408 13.3206 7.28744C11.3273 9.28081 9.74606 11.6473 8.66726 14.2517C7.58845 16.8562 7.0332 19.6476 7.0332 22.4667V22.4667Z" stroke="black" stroke-width="2" stroke-linecap="round" stroke-linejoin="round"/>
<path d="M34.0402 25.5298C33.6614 26.4389 32.9388 27.1615 32.0298 27.5402L19.5642 32.7333C19.3971 32.8025 19.2136 32.8218 19.0358 32.7886C18.858 32.7555 18.6937 32.6714 18.5628 32.5467C18.4319 32.4219 18.3401 32.2618 18.2985 32.0858C18.2569 31.9099 18.2673 31.7256 18.3284 31.5554L22.9559 18.7034C23.1415 18.1883 23.4385 17.7204 23.8257 17.3332C24.2129 16.946 24.6808 16.649 25.1959 16.4634L38.0572 11.8266C38.2274 11.7655 38.4117 11.755 38.5877 11.7966C38.7636 11.8383 38.9238 11.9301 39.0485 12.061C39.1733 12.1919 39.2573 12.3562 39.2905 12.534C39.3236 12.7117 39.3044 12.8953 39.2351 13.0623L34.0402 25.5298Z" stroke="black" stroke-width="2" stroke-linecap="round" stroke-linejoin="round"/>
<path d="M25.7002 22.4666C25.7002 23.2092 25.9952 23.9214 26.5203 24.4465C27.0454 24.9716 27.7576 25.2666 28.5002 25.2666C29.2428 25.2666 29.955 24.9716 30.4801 24.4465C31.0052 23.9214 31.3002 23.2092 31.3002 22.4666C31.3002 21.724 31.0052 21.0118 30.4801 20.4867C29.955 19.9616 29.2428 19.6666 28.5002 19.6666C27.7576 19.6666 27.0454 19.9616 26.5203 20.4867C25.9952 21.0118 25.7002 21.724 25.7002 22.4666V22.4666Z" stroke="black" stroke-width="2" stroke-linecap="round" stroke-linejoin="round"/>
<path d="M28.5 4.73328V6.59994" stroke="black" stroke-width="2" stroke-linecap="round" stroke-linejoin="round"/>
<path d="M46.2329 22.4667H44.3662" stroke="black" stroke-width="2" stroke-linecap="round" stroke-linejoin="round"/>
<path d="M41.0403 35.0069L39.7188 33.6853" stroke="black" stroke-width="2" stroke-linecap="round" stroke-linejoin="round"/>
<path d="M28.5 40.2V38.3334" stroke="black" stroke-width="2" stroke-linecap="round" stroke-linejoin="round"/>
<path d="M10.7666 22.4667H12.6333" stroke="black" stroke-width="2" stroke-linecap="round" stroke-linejoin="round"/>
<path d="M15.96 9.92639L17.2816 11.248" stroke="black" stroke-width="2" stroke-linecap="round" stroke-linejoin="round"/>
</svg>
