<svg width="54" height="46" viewBox="0 0 54 46" fill="none" xmlns="http://www.w3.org/2000/svg">
<path d="M53.996 17.82C53.996 33.4276 54.6338 45 39.7232 45C24.8126 45 0 33.4276 0 17.82C0 2.21241 16.7304 1.07784e-10 31.641 1.07784e-10C44.0222 1.44 53.996 2.21241 53.996 17.82Z" fill="#E5F3FD"/>
<path d="M37.334 35.1334C37.334 36.1235 37.7273 37.0731 38.4275 37.7732C39.1276 38.4734 40.0772 38.8667 41.0673 38.8667C42.0575 38.8667 43.007 38.4734 43.7072 37.7732C44.4073 37.0731 44.8006 36.1235 44.8006 35.1334C44.8006 34.1432 44.4073 33.1936 43.7072 32.4935C43.007 31.7934 42.0575 31.4 41.0673 31.4C40.0772 31.4 39.1276 31.7934 38.4275 32.4935C37.7273 33.1936 37.334 34.1432 37.334 35.1334Z" stroke="#021A39" stroke-width="2" stroke-linecap="round" stroke-linejoin="round"/>
<path d="M25.2002 33.2666V40.7333C25.2002 41.7234 25.5935 42.673 26.2937 43.3731C26.9938 44.0733 27.9434 44.4666 28.9335 44.4666C29.9237 44.4666 30.8733 44.0733 31.5734 43.3731C32.2735 42.673 32.6669 41.7234 32.6669 40.7333V39.7999C32.6669 38.5623 33.1585 37.3753 34.0337 36.5001C34.9089 35.6249 36.0959 35.1333 37.3335 35.1333" stroke="#021A39" stroke-width="2" stroke-linecap="round" stroke-linejoin="round"/>
<path d="M25.2002 19.7333C25.324 19.7333 25.4427 19.7824 25.5302 19.87C25.6177 19.9575 25.6669 20.0762 25.6669 20.1999" stroke="#021A39" stroke-width="2" stroke-linecap="round" stroke-linejoin="round"/>
<path d="M24.7334 20.1999C24.7334 20.0762 24.7826 19.9575 24.8701 19.87C24.9576 19.7824 25.0763 19.7333 25.2001 19.7333" stroke="#021A39" stroke-width="2" stroke-linecap="round" stroke-linejoin="round"/>
<path d="M25.2001 20.6666C25.0763 20.6666 24.9576 20.6175 24.8701 20.5299C24.7826 20.4424 24.7334 20.3237 24.7334 20.2" stroke="#021A39" stroke-width="2" stroke-linecap="round" stroke-linejoin="round"/>
<path d="M25.6669 20.2C25.6669 20.3237 25.6177 20.4424 25.5302 20.5299C25.4427 20.6175 25.324 20.6666 25.2002 20.6666" stroke="#021A39" stroke-width="2" stroke-linecap="round" stroke-linejoin="round"/>
<path d="M16.7998 1.53333H33.5998V25.8H16.7998V1.53333Z" stroke="#021A39" stroke-width="2" stroke-linecap="round" stroke-linejoin="round"/>
<path d="M37.3335 10.8667C37.8286 10.8667 38.3034 11.0634 38.6535 11.4134C39.0035 11.7635 39.2002 12.2383 39.2002 12.7334V19.2667C39.2002 22.9797 37.7252 26.5407 35.0997 29.1662C32.4742 31.7917 28.9132 33.2667 25.2002 33.2667C21.4872 33.2667 17.9262 31.7917 15.3007 29.1662C12.6752 26.5407 11.2002 22.9797 11.2002 19.2667V12.7334C11.2002 12.2383 11.3969 11.7635 11.7469 11.4134C12.097 11.0634 12.5718 10.8667 13.0669 10.8667" stroke="#021A39" stroke-width="2" stroke-linecap="round" stroke-linejoin="round"/>
</svg>
