<svg width="57" height="48" viewBox="0 0 57 48" fill="none" xmlns="http://www.w3.org/2000/svg">
<path d="M56.0411 22.7131C55.2151 34.7294 61.3801 44.5587 45.4718 44.5824C29.5634 44.6061 3.45258 39.6728 0.665403 23.5434C-0.72353 9.63563 8.27942 3.98841 24.1878 3.9647C37.3995 5.24473 56.9816 9.03043 56.0411 22.7131Z" fill="#F0E8FC"/>
<path d="M14 7.5C14.0989 7.5 14.1956 7.52932 14.2778 7.58427C14.36 7.63921 14.4241 7.7173 14.4619 7.80866C14.4998 7.90002 14.5097 8.00056 14.4904 8.09755C14.4711 8.19454 14.4235 8.28363 14.3536 8.35355C14.2836 8.42348 14.1945 8.4711 14.0975 8.49039C14.0006 8.50969 13.9 8.49978 13.8087 8.46194C13.7173 8.4241 13.6392 8.36001 13.5843 8.27779C13.5293 8.19556 13.5 8.09889 13.5 8C13.5 7.86739 13.5527 7.74021 13.6464 7.64645C13.7402 7.55268 13.8674 7.5 14 7.5Z" stroke="black" stroke-width="2" stroke-linecap="round" stroke-linejoin="round"/>
<path d="M19.5 7.5C19.5989 7.5 19.6956 7.52932 19.7778 7.58427C19.86 7.63921 19.9241 7.7173 19.9619 7.80866C19.9998 7.90002 20.0097 8.00056 19.9904 8.09755C19.9711 8.19454 19.9235 8.28363 19.8536 8.35355C19.7836 8.42348 19.6945 8.4711 19.5975 8.49039C19.5006 8.50969 19.4 8.49978 19.3087 8.46194C19.2173 8.4241 19.1392 8.36001 19.0843 8.27779C19.0293 8.19556 19 8.09889 19 8C19 7.86739 19.0527 7.74021 19.1464 7.64645C19.2402 7.55268 19.3674 7.5 19.5 7.5Z" stroke="black" stroke-width="2" stroke-linecap="round" stroke-linejoin="round"/>
<path d="M25 7.5C25.0989 7.5 25.1956 7.52932 25.2778 7.58427C25.36 7.63921 25.4241 7.7173 25.4619 7.80866C25.4998 7.90002 25.5097 8.00056 25.4904 8.09755C25.4711 8.19454 25.4235 8.28363 25.3536 8.35355C25.2836 8.42348 25.1945 8.4711 25.0975 8.49039C25.0006 8.50969 24.9 8.49978 24.8087 8.46194C24.7173 8.4241 24.6392 8.36001 24.5843 8.27779C24.5293 8.19556 24.5 8.09889 24.5 8C24.5 7.86739 24.5527 7.74021 24.6464 7.64645C24.7402 7.55268 24.8674 7.5 25 7.5Z" stroke="black" stroke-width="2" stroke-linecap="round" stroke-linejoin="round"/>
<path d="M35 24.5C35.0989 24.5 35.1956 24.5293 35.2778 24.5843C35.36 24.6392 35.4241 24.7173 35.4619 24.8087C35.4998 24.9 35.5097 25.0006 35.4904 25.0975C35.4711 25.1945 35.4235 25.2836 35.3536 25.3536C35.2836 25.4235 35.1945 25.4711 35.0975 25.4904C35.0006 25.5097 34.9 25.4998 34.8087 25.4619C34.7173 25.4241 34.6392 25.36 34.5843 25.2778C34.5293 25.1956 34.5 25.0989 34.5 25C34.5 24.8674 34.5527 24.7402 34.6464 24.6464C34.7402 24.5527 34.8674 24.5 35 24.5Z" stroke="black" stroke-width="2" stroke-linecap="round" stroke-linejoin="round"/>
<path d="M39.5 24.5C39.5989 24.5 39.6956 24.5293 39.7778 24.5843C39.86 24.6392 39.9241 24.7173 39.9619 24.8087C39.9998 24.9 40.0097 25.0006 39.9904 25.0975C39.9711 25.1945 39.9235 25.2836 39.8536 25.3536C39.7836 25.4235 39.6945 25.4711 39.5975 25.4904C39.5006 25.5097 39.4 25.4998 39.3087 25.4619C39.2173 25.4241 39.1392 25.36 39.0843 25.2778C39.0293 25.1956 39 25.0989 39 25C39 24.8674 39.0527 24.7402 39.1464 24.6464C39.2402 24.5527 39.3674 24.5 39.5 24.5Z" stroke="black" stroke-width="2" stroke-linecap="round" stroke-linejoin="round"/>
<path d="M44 24.5C44.0989 24.5 44.1956 24.5293 44.2778 24.5843C44.36 24.6392 44.4241 24.7173 44.4619 24.8087C44.4998 24.9 44.5097 25.0006 44.4904 25.0975C44.4711 25.1945 44.4235 25.2836 44.3536 25.3536C44.2836 25.4235 44.1945 25.4711 44.0975 25.4904C44.0006 25.5097 43.9 25.4998 43.8087 25.4619C43.7173 25.4241 43.6392 25.36 43.5843 25.2778C43.5293 25.1956 43.5 25.0989 43.5 25C43.5 24.8674 43.5527 24.7402 43.6464 24.6464C43.7402 24.5527 43.8674 24.5 44 24.5Z" stroke="black" stroke-width="2" stroke-linecap="round" stroke-linejoin="round"/>
<path d="M41.5 36V43C41.5 44.0609 41.0786 45.0783 40.3284 45.8284C39.5783 46.5786 38.5609 47 37.5 47H23.5C22.4391 47 21.4217 46.5786 20.6716 45.8284C19.9214 45.0783 19.5 44.0609 19.5 43V23" stroke="black" stroke-width="2" stroke-linecap="round" stroke-linejoin="round"/>
<path d="M35.5 7H37.5C38.5609 7 39.5783 7.42143 40.3284 8.17157C41.0786 8.92172 41.5 9.93913 41.5 11V15" stroke="black" stroke-width="2" stroke-linecap="round" stroke-linejoin="round"/>
<path d="M41.5 39H19.5" stroke="black" stroke-width="2" stroke-linecap="round" stroke-linejoin="round"/>
<path d="M30.5 42.5C30.6326 42.5 30.7598 42.5527 30.8536 42.6464C30.9473 42.7402 31 42.8674 31 43C31 43.1326 30.9473 43.2598 30.8536 43.3536C30.7598 43.4473 30.6326 43.5 30.5 43.5C30.3674 43.5 30.2402 43.4473 30.1464 43.3536C30.0527 43.2598 30 43.1326 30 43C30 42.8674 30.0527 42.7402 30.1464 42.6464C30.2402 42.5527 30.3674 42.5 30.5 42.5Z" stroke="black" stroke-width="2" stroke-linecap="round" stroke-linejoin="round"/>
<path d="M11.5 1C10.4391 1 9.42172 1.42143 8.67157 2.17157C7.92143 2.92172 7.5 3.93913 7.5 5V11C7.5 12.0609 7.92143 13.0783 8.67157 13.8284C9.42172 14.5786 10.4391 15 11.5 15H17.5L23.5 21V15H27.5C28.5609 15 29.5783 14.5786 30.3284 13.8284C31.0786 13.0783 31.5 12.0609 31.5 11V5C31.5 3.93913 31.0786 2.92172 30.3284 2.17157C29.5783 1.42143 28.5609 1 27.5 1H11.5Z" stroke="black" stroke-width="2" stroke-linecap="round" stroke-linejoin="round"/>
<path d="M49.5 23V27C49.5 28.0609 49.0786 29.0783 48.3284 29.8284C47.5783 30.5786 46.5609 31 45.5 31H41.5L35.5 35V31H33.5C32.4391 31 31.4217 30.5786 30.6716 29.8284C29.9214 29.0783 29.5 28.0609 29.5 27V23C29.5 21.9391 29.9214 20.9217 30.6716 20.1716C31.4217 19.4214 32.4391 19 33.5 19H45.5C46.5609 19 47.5783 19.4214 48.3284 20.1716C49.0786 20.9217 49.5 21.9391 49.5 23Z" stroke="black" stroke-width="2" stroke-linecap="round" stroke-linejoin="round"/>
</svg>
